<?xml version="1.0" encoding="UTF-8"?>
<svg id="_レイヤー_1" data-name="レイヤー 1" xmlns="http://www.w3.org/2000/svg" viewBox="0 0 1280.49 450.92">
  <defs>
    <style>
      .cls-1 {
        fill: #fff;
      }
    </style>
  </defs>
  <path class="cls-1" d="m304.44,129.24l-58.72,10.85c2.55-11.7,3.83-21.49,3.83-29.36,0-50.63-30.75-75.95-92.23-75.95-48.51,0-72.76,17.45-72.76,52.34,0,26.17,27.12,48.62,81.38,67.33,104.67,35.96,157.01,89.14,157.01,159.56,0,41.28-14.68,74.41-44.04,99.41-29.36,25-68.4,37.5-117.12,37.5C53.93,450.92,0,409.11,0,325.5c0-6.81.53-15.21,1.6-25.21l60.95-13.4c-4.68,18.51-7.02,34.58-7.02,48.19,0,54.04,30.95,81.06,92.86,81.06,49.57,0,74.35-19.47,74.35-58.4,0-28.93-29.68-54.35-89.03-76.27C47.97,249.98,5.11,199.66,5.11,130.52c0-39.14,14.31-70.69,42.92-94.62C76.64,11.97,114.25,0,160.84,0c95.74,0,143.6,43.08,143.6,129.24Z"/>
  <path class="cls-1" d="m498.63,7.34v435.6h-126.37V7.34h126.37Z"/>
  <path class="cls-1" d="m694.1,7.34v391.88h179.03v43.72h-305.4V7.34h126.37Z"/>
  <path class="cls-1" d="m1228.79,7.34l-108.82,137.54,160.52,298.06h-140.73l-102.12-190.83-18.19,20.42v170.41h-126.37V7.34h126.37v194.02L1169.43,7.34h59.36Z"/>
</svg>